<svg width="21" height="22" viewBox="0 0 21 22" fill="none" xmlns="http://www.w3.org/2000/svg">
<path d="M6.33334 5.25033V9.41595H9.45834V5.25033H11.5417V9.41595H14.6667V5.25033H16.75V9.41595L17.7917 9.41699C18.5888 9.41695 19.3558 9.7215 19.9357 10.2683C20.5156 10.8152 20.8647 11.5629 20.9115 12.3587L20.9167 12.542V13.5837C20.9167 14.6399 20.524 15.6045 19.8761 16.3389L19.875 20.8753C19.875 21.1516 19.7653 21.4165 19.5699 21.6119C19.3746 21.8072 19.1096 21.917 18.8333 21.917H2.16668C1.89041 21.917 1.62546 21.8072 1.43011 21.6119C1.23476 21.4165 1.12501 21.1516 1.12501 20.8753V16.3337C0.565234 15.696 0.212175 14.9034 0.11251 14.0607L0.0895936 13.7972L0.0833435 13.5837V12.542C0.0832991 11.7449 0.387849 10.9779 0.934681 10.398C1.48151 9.81803 2.22929 9.46896 3.02501 9.4222L3.20834 9.41699L4.25001 9.41595V5.25033H6.33334ZM7.37709 16.3347L7.32084 16.4003C6.63803 17.1458 5.70713 17.6172 4.70209 17.7264L4.46251 17.7451L4.25001 17.7503C3.89064 17.7503 3.54168 17.7045 3.20834 17.6191V19.8337H17.7917V17.6191C17.1098 17.7944 16.3946 17.7943 15.7127 17.6189C15.0308 17.4436 14.4044 17.0985 13.8917 16.6159L13.7354 16.4597L13.625 16.3378L13.5136 16.4607C12.8381 17.1699 11.9339 17.6178 10.9604 17.7253L10.7083 17.7462L10.5 17.7503C9.40987 17.7519 8.36303 17.3238 7.58647 16.5587L7.43022 16.3951L7.37709 16.3347ZM17.7917 11.5003H3.20834C2.9532 11.5004 2.70695 11.594 2.51629 11.7636C2.32563 11.9331 2.20382 12.1667 2.17397 12.4201L2.16668 12.542V13.5534L2.1698 13.7066C2.20115 14.237 2.43398 14.7354 2.82067 15.0998C3.20735 15.4642 3.71867 15.6671 4.25001 15.667C4.74892 15.6679 5.23156 15.4896 5.61009 15.1646C5.98863 14.8396 6.23789 14.3895 6.31251 13.8962L6.32814 13.7368L6.33334 13.5534C6.37084 12.2534 8.23647 12.2066 8.40522 13.4139L8.41564 13.5534L8.4198 13.7066C8.44894 14.2357 8.67861 14.7338 9.06205 15.0995C9.4455 15.4653 9.95391 15.6712 10.4838 15.6753C11.0137 15.6794 11.5252 15.4814 11.9143 15.1217C12.3034 14.762 12.5408 14.2675 12.5781 13.7389L12.5906 13.4451C12.7198 12.2409 14.5302 12.2409 14.6594 13.4451L14.6729 13.7389C14.7135 14.2619 14.95 14.7504 15.335 15.1067C15.7201 15.463 16.2254 15.6609 16.75 15.6609C17.2746 15.6609 17.7799 15.463 18.165 15.1067C18.55 14.7504 18.7865 14.2619 18.8271 13.7389L18.8333 13.5837V12.542C18.8333 12.2869 18.7396 12.0406 18.5701 11.8499C18.4006 11.6593 18.1669 11.5375 17.9136 11.5076L17.7917 11.5003ZM5.29168 0.0419922C6.66668 0.949284 7.02397 2.21699 6.80105 3.05033C6.69386 3.45064 6.43204 3.79197 6.07318 3.99924C5.71432 4.2065 5.28782 4.26273 4.88751 4.15553C4.4872 4.04834 4.14587 3.78652 3.9386 3.42766C3.73133 3.0688 3.67511 2.6423 3.7823 2.24199C4.09376 1.08574 5.29168 1.60449 5.29168 0.0419922ZM10.5 0.0419922C11.875 0.949284 12.2323 2.21699 12.0094 3.05033C11.9022 3.45064 11.6404 3.79197 11.2815 3.99924C10.9227 4.2065 10.4962 4.26273 10.0958 4.15553C9.69553 4.04834 9.3542 3.78652 9.14693 3.42766C8.93967 3.0688 8.88344 2.6423 8.99064 2.24199C9.30209 1.08574 10.5 1.60449 10.5 0.0419922ZM15.7083 0.0419922C17.0833 0.949284 17.4406 2.21699 17.2177 3.05033C17.1105 3.45064 16.8487 3.79197 16.4898 3.99924C16.131 4.2065 15.7045 4.26273 15.3042 4.15553C14.9039 4.04834 14.5625 3.78652 14.3553 3.42766C14.148 3.0688 14.0918 2.6423 14.199 2.24199C14.5104 1.08574 15.7083 1.60449 15.7083 0.0419922Z" fill="white"/>
</svg>
