<svg width="201" height="175" viewBox="0 0 201 175" fill="none" xmlns="http://www.w3.org/2000/svg">
<g clip-path="url(#clip0_569_1533)">
<path d="M10.1505 59.6346L0.506991 54.2043C0.376911 48.3943 1.66736 42.6404 4.26628 37.4422C6.48963 47.5313 18.1904 52.3313 23.589 61.1403C25.2517 63.9006 26.2718 66.9996 26.5737 70.2077C26.8756 73.4158 26.4515 76.6506 25.3329 79.6726L25.9672 87.4949C20.9831 86.0024 16.3819 83.4474 12.4805 80.0059C8.57921 76.5643 5.47053 72.3181 3.36867 67.5598C2.21599 64.8787 1.40561 62.0631 0.956639 59.1796C5.45285 59.6579 10.1505 59.6346 10.1505 59.6346Z" fill="#F2F2F2"/>
<path d="M183.508 158.428L183.804 151.78C186.887 150.133 190.325 149.263 193.82 149.245C189.01 153.178 189.611 160.757 186.349 166.045C185.32 167.687 183.933 169.075 182.294 170.108C180.654 171.141 178.803 171.792 176.877 172.013L172.852 174.477C172.299 171.398 172.421 168.236 173.209 165.209C173.996 162.182 175.431 159.361 177.414 156.942C178.54 155.596 179.831 154.396 181.256 153.373C182.22 155.914 183.508 158.428 183.508 158.428Z" fill="#F2F2F2"/>
<path d="M173.136 171.056L169.49 171.056L167.756 156.999L173.136 156.999L173.136 171.056Z" fill="#FFB6B6"/>
<path d="M174.065 174.589L162.312 174.588V174.44C162.312 173.227 162.794 172.063 163.652 171.206C164.51 170.348 165.673 169.866 166.886 169.866L169.034 168.238L173.04 169.866L174.066 169.866L174.065 174.589Z" fill="#2F2E41"/>
<path d="M156.201 171.056L152.556 171.056L150.821 156.999L156.202 156.999L156.201 171.056Z" fill="#FFB6B6"/>
<path d="M157.13 174.589L145.377 174.588V174.44C145.377 173.227 145.859 172.063 146.717 171.206C147.575 170.348 148.738 169.866 149.952 169.866L152.099 168.238L156.105 169.866L157.131 169.866L157.13 174.589Z" fill="#2F2E41"/>
<path d="M154.623 94.2057L178.333 94.7984C182.836 97.2436 182.904 102.536 181.429 108.82C181.429 108.82 181.927 112.555 180.931 113.551C179.935 114.547 179.437 114.547 179.935 116.289C180.433 118.032 177.801 120.879 178.121 121.199C178.44 121.518 179.188 123.261 179.188 123.261L176.697 137.453C176.697 137.453 174.954 162.103 174.456 162.601C173.958 163.099 173.46 162.601 173.958 163.846C174.456 165.091 174.954 164.593 174.456 165.091C174.015 165.567 173.599 166.065 173.211 166.585H167.189C167.189 166.585 166.735 164.095 166.735 163.846C166.735 163.597 166.237 162.103 166.237 161.854C166.237 161.605 166.678 161.165 166.678 161.165C166.83 160.659 166.932 160.139 166.984 159.613C166.984 159.115 168.479 139.943 168.479 139.943L165.49 115.044L158.268 139.445C158.268 139.445 158.268 160.858 157.77 161.356C157.272 161.854 157.272 161.605 157.521 162.601C157.77 163.597 158.766 163.348 158.019 164.095C157.272 164.842 157.023 163.597 157.272 164.842L157.521 166.087L150.049 166.194C150.049 166.194 149.053 164.095 149.551 163.348C150.049 162.601 150.02 162.805 149.412 161.583C148.804 160.36 148.555 160.111 148.804 159.862C149.053 159.613 149.053 158.289 149.053 158.289L150.298 134.466C150.298 134.466 150.547 109.318 150.547 108.571C150.566 108.186 150.495 107.803 150.341 107.451V106.437L151.295 102.844L154.623 94.2057Z" fill="#2F2E41"/>
<path d="M168.866 44.9154C172.934 44.9154 176.233 41.6179 176.233 37.5502C176.233 33.4825 172.934 30.185 168.866 30.185C164.797 30.185 161.499 33.4825 161.499 37.5502C161.499 41.6179 164.797 44.9154 168.866 44.9154Z" fill="#FFB6B6"/>
<path d="M165.182 49.7833C163.595 50.7266 162.646 52.4598 162.101 54.2236C161.092 57.4888 160.485 60.8649 160.292 64.277L159.717 74.4924L152.587 96.2438C158.766 101.471 181.991 97.4317 181.991 97.4317C181.991 97.4317 182.704 97.1941 181.991 96.4813C181.278 95.7686 180.584 96.4 181.297 95.6873C182.01 94.9745 181.518 95.7686 181.28 95.0558C181.043 94.343 181.28 94.8182 181.518 94.5806C181.756 94.343 179.678 92.2047 179.678 92.2047L181.58 79.7193L183.956 54.535C181.104 50.9712 175.369 48.8704 175.369 48.8704L173.887 46.2036L166.478 46.7962L165.182 49.7833Z" fill="#E6E6E6"/>
<path d="M164.172 33.2278C164.457 33.23 164.741 33.2672 165.017 33.3386C165.561 33.4693 166.113 33.562 166.67 33.6158C168.376 33.7762 169.978 34.5034 171.222 35.6811C172.465 36.8589 173.278 38.4193 173.531 40.1132C173.959 39.7401 174.933 39.0537 175.731 39.6916C175.743 39.7017 175.75 39.7069 175.779 39.6936C176.309 39.4422 177.25 36.3468 177.279 33.6214C177.294 32.1749 177.066 30.3277 175.896 29.7428L175.834 29.712L175.818 29.645C175.74 29.3196 174.866 28.7642 173.348 28.3318C170.589 27.5462 166.477 26.0158 164.161 28.2681C163.986 29.0274 163.416 30.6523 162.84 30.8364C162.202 31.0403 161.651 31.2162 161.564 31.9984C161.492 33.1115 161.497 34.2282 161.58 35.3406C161.796 34.6599 162.22 34.0642 162.793 33.6372C163.2 33.3632 163.681 33.2203 164.172 33.2278Z" fill="#2F2E41"/>
<path d="M150.46 73.9237L162.494 66.2187L156.433 58.1634L150.448 65.5237L131.8 66.6672C131.31 66.1825 130.689 65.8509 130.013 65.7129C129.338 65.5749 128.636 65.6364 127.995 65.89C127.354 66.1436 126.8 66.5782 126.401 67.141C126.003 67.7037 125.777 68.3702 125.751 69.0592C125.724 69.7482 125.899 70.43 126.254 71.0213C126.609 71.6126 127.128 72.088 127.748 72.3895C128.368 72.691 129.063 72.8055 129.747 72.7192C130.431 72.6328 131.076 72.3493 131.601 71.9032L150.46 73.9237Z" fill="#FFB6B6"/>
<path d="M173.663 55.464C174.361 59.6898 161.172 67.7594 161.172 67.7594C161.172 66.7675 153.3 74.2556 152.944 73.4329C151.934 71.095 151.224 65.5574 149.813 64.671C149.006 64.1641 154.674 59.4024 154.674 59.4024C154.674 59.4024 157.64 56.4145 161.533 52.6457C162.614 51.5597 163.952 50.7649 165.423 50.3351C166.894 49.9053 168.449 49.8545 169.945 50.1874C169.945 50.1874 172.964 51.2381 173.663 55.464Z" fill="#E6E6E6"/>
<path d="M198.467 75.9462L190.507 64.0809L182.58 70.3098L190.067 76.1362L191.605 94.7512C191.131 95.2517 190.812 95.8794 190.689 96.5577C190.565 97.2361 190.641 97.9357 190.909 98.5714C191.176 99.207 191.622 99.7513 192.193 100.138C192.764 100.524 193.436 100.736 194.125 100.748C194.815 100.759 195.493 100.57 196.077 100.203C196.661 99.8358 197.125 99.3069 197.413 98.6806C197.702 98.0542 197.802 97.3575 197.701 96.6755C197.6 95.9934 197.303 95.3553 196.845 94.8392L198.467 75.9462Z" fill="#FFB6B6"/>
<path d="M179.515 53.1447C183.727 52.3571 192.075 65.3697 192.075 65.3697C191.084 65.3909 198.738 73.1009 197.923 73.4735C195.607 74.5324 190.084 75.3594 189.228 76.7886C188.738 77.606 183.856 72.042 183.856 72.042C183.856 72.042 180.805 69.1401 176.954 65.3286C175.845 64.2712 175.022 62.9506 174.561 61.4896C174.1 60.0286 174.016 58.4747 174.318 56.9727C174.318 56.9727 175.304 53.9323 179.515 53.1447Z" fill="#E6E6E6"/>
<path d="M200.5 174.647C200.5 174.694 200.491 174.74 200.473 174.782C200.456 174.825 200.43 174.864 200.397 174.897C200.364 174.93 200.325 174.956 200.282 174.973C200.24 174.991 200.194 175 200.147 175H117.076C116.983 175 116.893 174.963 116.827 174.897C116.761 174.831 116.723 174.741 116.723 174.647C116.723 174.554 116.761 174.464 116.827 174.398C116.893 174.332 116.983 174.295 117.076 174.295H200.147C200.194 174.295 200.24 174.304 200.282 174.321C200.325 174.339 200.364 174.365 200.397 174.398C200.43 174.431 200.456 174.469 200.473 174.512C200.491 174.555 200.5 174.601 200.5 174.647Z" fill="#CCCCCC"/>
<path d="M123.544 67.7933H22.7258C21.1506 67.795 19.6405 68.4214 18.5267 69.535C17.413 70.6485 16.7864 72.1583 16.7847 73.733V136.488C16.7865 138.063 17.413 139.572 18.5267 140.686C19.6405 141.799 21.1506 142.426 22.7258 142.428H123.544C125.119 142.426 126.629 141.8 127.743 140.686C128.857 139.572 129.483 138.063 129.485 136.488V73.733C129.483 72.1582 128.857 70.6485 127.743 69.5349C126.629 68.4214 125.119 67.795 123.544 67.7933Z" fill="#2B93FF"/>
<path d="M123.544 67.7933H22.7258C21.1506 67.795 19.6405 68.4214 18.5267 69.535C17.413 70.6485 16.7864 72.1583 16.7847 73.733V136.488C16.7865 138.063 17.413 139.572 18.5267 140.686C19.6405 141.799 21.1506 142.426 22.7258 142.428H123.544C125.119 142.426 126.629 141.8 127.743 140.686C128.857 139.572 129.483 138.063 129.485 136.488V73.733C129.483 72.1582 128.857 70.6485 127.743 69.5349C126.629 68.4214 125.119 67.795 123.544 67.7933ZM125.494 112.871C125.47 119.26 122.942 125.385 118.453 129.932C113.964 134.479 107.871 137.086 101.482 137.193C91.2519 137.326 107.142 137.378 94.8039 137.378C66.5911 137.378 37.1729 137.109 26.1967 136.934C24.7525 136.904 23.3773 136.311 22.3645 135.281C21.3517 134.252 20.7817 132.867 20.7761 131.423V73.7377C20.7766 73.2205 20.982 72.7247 21.3473 72.3586C21.7126 71.9924 22.2081 71.7859 22.7254 71.784H123.54C124.057 71.7846 124.553 71.9899 124.919 72.3551C125.285 72.7202 125.492 73.2154 125.494 73.7325V112.871Z" fill="#3F3D56"/>
<path d="M111.133 31.657H34.3205C33.6409 31.658 32.9781 31.8687 32.4227 32.2603C31.8673 32.6518 31.4463 33.2052 31.2172 33.8449L19.3539 67.1204C19.1769 67.6171 19.1217 68.149 19.1929 68.6714C19.2642 69.1939 19.4599 69.6916 19.7635 70.1227C20.0672 70.5538 20.4699 70.9058 20.9378 71.149C21.4058 71.3922 21.9253 71.5195 22.4527 71.5203L125.471 71.703H125.476C126.021 71.703 126.558 71.5677 127.038 71.3093C127.518 71.0509 127.926 70.6774 128.226 70.2224C128.526 69.7673 128.709 69.2449 128.757 68.702C128.806 68.1591 128.719 67.6127 128.504 67.1117L114.162 33.6534C113.908 33.0606 113.486 32.5553 112.948 32.2004C112.409 31.8455 111.778 31.6565 111.133 31.657Z" fill="#3F3D56"/>
<path d="M128.771 67.8343C128.771 68.2805 128.68 68.722 128.504 69.1321L114.163 94.8873C113.907 95.4789 113.484 95.9828 112.946 96.3371C112.408 96.6914 111.778 96.8807 111.134 96.8815H34.3218C33.6419 96.8808 32.9788 96.6705 32.4229 96.2791C31.8671 95.8878 31.4455 95.3345 31.2158 94.6947L19.3548 69.1232C19.2094 68.7158 19.1458 68.2838 19.1675 67.8518C19.1892 67.4198 19.2959 66.9963 19.4814 66.6055C19.6669 66.2148 19.9276 65.8644 20.2487 65.5744C20.5697 65.2845 20.9447 65.0606 21.3524 64.9156C21.705 64.7883 22.077 64.7232 22.4519 64.723L35.0361 64.6993L40.1723 64.6905L107.758 64.5719L112.897 64.563L125.472 64.5393H125.475C126.349 64.5395 127.187 64.8867 127.805 65.5046C128.424 66.1225 128.771 66.9605 128.771 67.8343Z" fill="#3F3D56"/>
<path d="M30.2838 114.867C31.807 114.867 52.7237 116.145 52.7237 117.668C52.7237 119.19 31.807 120.381 30.2838 120.381C29.5524 120.381 28.8509 120.091 28.3337 119.574C27.8164 119.057 27.5259 118.355 27.5259 117.624C27.5259 116.893 27.8164 116.191 28.3337 115.674C28.8509 115.157 29.5524 114.867 30.2838 114.867Z" fill="#3F3D56"/>
<path d="M106.35 11.414H41.583C39.8472 11.416 38.1831 12.1063 36.9558 13.3333C35.7284 14.5604 35.038 16.2241 35.036 17.9595V96.8815H111.134C111.758 96.8835 112.371 96.7055 112.897 96.3689V17.9595C112.895 16.2241 112.205 14.5604 110.977 13.3333C109.75 12.1063 108.086 11.416 106.35 11.414Z" fill="#E6E6E6"/>
<path d="M81.6293 16.7209H46.1353C44.5548 16.7224 43.0394 17.3506 41.9215 18.4677C40.8037 19.5848 40.1746 21.0995 40.1722 22.6797V96.8815H107.758V42.8435C107.75 35.9178 104.994 29.2781 100.096 24.3809C95.1979 19.4836 88.5566 16.7289 81.6293 16.7209Z" fill="white"/>
<path d="M96.2436 90.2916H51.6864C51.3012 90.2916 50.9318 90.4446 50.6595 90.7169C50.3871 90.9891 50.2341 91.3584 50.2341 91.7435C50.2341 92.1286 50.3871 92.4979 50.6595 92.7702C50.9318 93.0425 51.3012 93.1954 51.6864 93.1954H96.2436C96.6287 93.1954 96.9981 93.0425 97.2704 92.7702C97.5428 92.4979 97.6958 92.1286 97.6958 91.7435C97.6958 91.3584 97.5428 90.9891 97.2704 90.7169C96.9981 90.4446 96.6287 90.2916 96.2436 90.2916Z" fill="#E4E4E4"/>
<path d="M96.2436 84.5491H51.6864C51.3008 84.5491 50.9311 84.7022 50.6585 84.9748C50.3858 85.2474 50.2327 85.617 50.2327 86.0025C50.2327 86.388 50.3858 86.7576 50.6585 87.0302C50.9311 87.3028 51.3008 87.4559 51.6864 87.4559H96.2436C96.6291 87.4559 96.9989 87.3028 97.2715 87.0302C97.5441 86.7576 97.6973 86.388 97.6973 86.0025C97.6973 85.617 97.5441 85.2474 97.2715 84.9748C96.9989 84.7022 96.6291 84.5491 96.2436 84.5491Z" fill="#E4E4E4"/>
<path d="M71.0012 78.8096H51.6864C51.3012 78.8096 50.9318 78.9626 50.6595 79.2349C50.3871 79.5071 50.2341 79.8764 50.2341 80.2615C50.2341 80.6466 50.3871 81.0159 50.6595 81.2882C50.9318 81.5605 51.3012 81.7134 51.6864 81.7134H71.0012C71.3864 81.7134 71.7557 81.5605 72.0281 81.2882C72.3004 81.0159 72.4534 80.6466 72.4534 80.2615C72.4534 79.8764 72.3004 79.5071 72.0281 79.2349C71.7557 78.9626 71.3864 78.8096 71.0012 78.8096Z" fill="#E4E4E4"/>
<path d="M96.2436 66.7854H51.6864C51.3008 66.7854 50.9311 66.9385 50.6585 67.211C50.3858 67.4836 50.2327 67.8533 50.2327 68.2388C50.2327 68.6242 50.3858 68.9939 50.6585 69.2665C50.9311 69.539 51.3008 69.6921 51.6864 69.6921H96.2436C96.6291 69.6921 96.9989 69.539 97.2715 69.2665C97.5441 68.9939 97.6973 68.6242 97.6973 68.2388C97.6973 67.8533 97.5441 67.4836 97.2715 67.211C96.9989 66.9385 96.6291 66.7854 96.2436 66.7854Z" fill="#E4E4E4"/>
<path d="M96.2436 61.0458H51.6864C51.3012 61.0458 50.9318 61.1988 50.6595 61.4711C50.3871 61.7434 50.2341 62.1127 50.2341 62.4978C50.2341 62.8828 50.3871 63.2521 50.6595 63.5244C50.9318 63.7967 51.3012 63.9497 51.6864 63.9497H96.2436C96.6287 63.9497 96.9981 63.7967 97.2704 63.5244C97.5428 63.2521 97.6958 62.8828 97.6958 62.4978C97.6958 62.1127 97.5428 61.7434 97.2704 61.4711C96.9981 61.1988 96.6287 61.0458 96.2436 61.0458Z" fill="#E4E4E4"/>
<path d="M71.0012 55.3034H51.6864C51.3008 55.3034 50.9311 55.4565 50.6585 55.7291C50.3858 56.0016 50.2327 56.3713 50.2327 56.7568C50.2327 57.1422 50.3858 57.5119 50.6585 57.7845C50.9311 58.057 51.3008 58.2102 51.6864 58.2102H71.0012C71.3868 58.2102 71.7565 58.057 72.0292 57.7845C72.3018 57.5119 72.4549 57.1422 72.4549 56.7568C72.4549 56.3713 72.3018 56.0016 72.0292 55.7291C71.7565 55.4565 71.3868 55.3034 71.0012 55.3034Z" fill="#E4E4E4"/>
<path d="M96.2436 43.2791H51.6864C51.3008 43.2791 50.9311 43.4322 50.6585 43.7048C50.3858 43.9774 50.2327 44.347 50.2327 44.7325C50.2327 45.118 50.3858 45.4877 50.6585 45.7602C50.9311 46.0328 51.3008 46.1859 51.6864 46.1859H96.2436C96.6291 46.1859 96.9989 46.0328 97.2715 45.7602C97.5441 45.4877 97.6973 45.118 97.6973 44.7325C97.6973 44.347 97.5441 43.9774 97.2715 43.7048C96.9989 43.4322 96.6291 43.2791 96.2436 43.2791Z" fill="#2B93FF"/>
<path d="M96.2436 37.5396H51.6864C51.3008 37.5396 50.9311 37.6927 50.6585 37.9653C50.3858 38.2379 50.2327 38.6075 50.2327 38.993C50.2327 39.3785 50.3858 39.7481 50.6585 40.0207C50.9311 40.2933 51.3008 40.4464 51.6864 40.4464H96.2436C96.6291 40.4464 96.9989 40.2933 97.2715 40.0207C97.5441 39.7481 97.6973 39.3785 97.6973 38.993C97.6973 38.6075 97.5441 38.2379 97.2715 37.9653C96.9989 37.6927 96.6291 37.5396 96.2436 37.5396Z" fill="#2B93FF"/>
<path d="M71.0012 31.7971H51.6864C51.3008 31.7971 50.9311 31.9502 50.6585 32.2228C50.3858 32.4954 50.2327 32.8651 50.2327 33.2505C50.2327 33.636 50.3858 34.0057 50.6585 34.2782C50.9311 34.5508 51.3008 34.7039 51.6864 34.7039H71.0012C71.3868 34.7039 71.7565 34.5508 72.0292 34.2782C72.3018 34.0057 72.4549 33.636 72.4549 33.2505C72.4549 32.8651 72.3018 32.4954 72.0292 32.2228C71.7565 31.9502 71.3868 31.7971 71.0012 31.7971Z" fill="#2B93FF"/>
<path d="M110.469 22.616C116.715 22.616 121.779 17.5532 121.779 11.308C121.779 5.06277 116.715 0 110.469 0C104.222 0 99.1582 5.06277 99.1582 11.308C99.1582 17.5532 104.222 22.616 110.469 22.616Z" fill="#2B93FF"/>
<path d="M108.926 17.1933C108.731 17.1933 108.538 17.1478 108.363 17.0605C108.189 16.9731 108.037 16.8463 107.919 16.69L104.834 12.5766C104.734 12.4445 104.661 12.2941 104.62 12.1339C104.579 11.9736 104.569 11.8068 104.592 11.643C104.616 11.4792 104.671 11.3215 104.755 11.1791C104.839 11.0366 104.951 10.9122 105.083 10.8129C105.216 10.7136 105.366 10.6415 105.527 10.6005C105.687 10.5596 105.854 10.5506 106.018 10.5743C106.182 10.5979 106.339 10.6536 106.481 10.7382C106.624 10.8228 106.748 10.9347 106.847 11.0673L108.866 13.7582L114.05 5.98264C114.236 5.70506 114.523 5.51236 114.851 5.44693C115.178 5.38151 115.518 5.44871 115.795 5.63377C116.073 5.81882 116.266 6.10657 116.331 6.4337C116.397 6.76083 116.329 7.10055 116.144 7.37813L109.973 16.6331C109.861 16.8005 109.711 16.9387 109.535 17.0361C109.359 17.1335 109.162 17.1873 108.961 17.1929C108.949 17.1931 108.938 17.1933 108.926 17.1933Z" fill="white"/>
</g>
<defs>
<clipPath id="clip0_569_1533">
<rect width="200" height="175" fill="white" transform="translate(0.5)"/>
</clipPath>
</defs>
</svg>
