<svg width="200" height="116" viewBox="0 0 200 116" fill="none" xmlns="http://www.w3.org/2000/svg">
<path d="M173.875 47.7614H17.4199C16.7555 47.7614 16.1184 48.0256 15.6487 48.4957C15.1789 48.9658 14.915 49.6035 14.915 50.2683C14.915 50.9332 15.1789 51.5708 15.6487 52.041C16.1184 52.5111 16.7555 52.7752 17.4199 52.7752H21.8515V112.748C21.8515 113.413 22.1154 114.05 22.5851 114.52C23.0549 114.991 23.692 115.255 24.3563 115.255C25.0206 115.255 25.6577 114.991 26.1275 114.52C26.5972 114.05 26.8611 113.413 26.8611 112.748L26.8992 52.7752H152.47L164.048 112.748C164.048 113.413 164.312 114.05 164.782 114.52C165.251 114.991 165.889 115.255 166.553 115.255C167.217 115.255 167.854 114.991 168.324 114.52C168.794 114.05 169.058 113.413 169.058 112.748L169.786 52.7752H173.875C174.539 52.7752 175.176 52.5111 175.646 52.041C176.116 51.5708 176.379 50.9332 176.379 50.2683C176.379 49.6035 176.116 48.9658 175.646 48.4957C175.176 48.0256 174.539 47.7614 173.875 47.7614Z" fill="#CCCCCC"/>
<path d="M44.539 36.5911V47.2071H17.964C17.2675 47.2313 16.5731 47.118 15.9203 46.8737C15.2676 46.6293 14.6693 46.2587 14.1597 45.783C13.6501 45.3072 13.2391 44.7357 12.9502 44.101C12.6613 43.4662 12.5001 42.7808 12.4759 42.0837C12.4516 41.3867 12.5648 40.6917 12.809 40.0384C13.0531 39.3851 13.4234 38.7864 13.8988 38.2763C14.3741 37.7663 14.9452 37.3549 15.5794 37.0658C16.2136 36.7766 16.8985 36.6153 17.595 36.5911C17.7179 36.5868 17.8409 36.5868 17.964 36.5911L44.539 36.5911Z" fill="#F2F2F2"/>
<path d="M45.1919 47.1254C45.1919 47.2337 45.1489 47.3375 45.0724 47.4141C44.9959 47.4906 44.8922 47.5337 44.784 47.5337H17.4908C16.0091 47.5327 14.5885 46.9428 13.5412 45.8939C12.4938 44.845 11.9055 43.4228 11.9055 41.9399C11.9055 40.457 12.4938 39.0348 13.5412 37.9858C14.5885 36.9369 16.0091 36.3471 17.4908 36.3461H44.784C44.8377 36.3459 44.8908 36.3564 44.9404 36.3769C44.9901 36.3973 45.0351 36.4274 45.0731 36.4653C45.1111 36.5032 45.1413 36.5483 45.1619 36.5979C45.1824 36.6475 45.193 36.7007 45.193 36.7544C45.193 36.8081 45.1824 36.8613 45.1619 36.9109C45.1413 36.9605 45.1111 37.0055 45.0731 37.0435C45.0351 37.0814 44.9901 37.1115 44.9404 37.1319C44.8908 37.1524 44.8377 37.1628 44.784 37.1627H17.4908C16.2261 37.1646 15.0139 37.6688 14.1203 38.5644C13.2267 39.4601 12.7248 40.6741 12.7248 41.9399C12.7248 43.2056 13.2267 44.4196 14.1203 45.3153C15.0139 46.211 16.2261 46.7152 17.4908 46.7171H44.784C44.8922 46.7171 44.9959 46.7602 45.0724 46.8367C45.1489 46.9133 45.1919 47.0171 45.1919 47.1254Z" fill="#6C63FF"/>
<path d="M44.5391 39.0409H15.9812C15.9596 39.041 15.9389 39.0326 15.9235 39.0174C15.9081 39.0022 15.8994 38.9816 15.8992 38.96C15.899 38.9384 15.9073 38.9176 15.9224 38.9022C15.9375 38.8867 15.9581 38.8779 15.9797 38.8776H44.5391C44.5606 38.8778 44.5811 38.8865 44.5962 38.9018C44.6114 38.9171 44.6199 38.9377 44.6199 38.9592C44.6199 38.9808 44.6114 39.0014 44.5962 39.0167C44.5811 39.032 44.5606 39.0407 44.5391 39.0409Z" fill="#CCCCCC"/>
<path d="M44.5391 41.0008H15.9812C15.9596 41.0009 15.9389 40.9925 15.9235 40.9773C15.9081 40.9621 15.8994 40.9415 15.8992 40.9199C15.899 40.8983 15.9073 40.8775 15.9224 40.8621C15.9375 40.8466 15.9581 40.8378 15.9797 40.8375H44.5391C44.5606 40.8377 44.5811 40.8464 44.5962 40.8617C44.6114 40.877 44.6199 40.8976 44.6199 40.9192C44.6199 40.9407 44.6114 40.9613 44.5962 40.9766C44.5811 40.9919 44.5606 41.0006 44.5391 41.0008Z" fill="#CCCCCC"/>
<path d="M44.5391 42.9607H15.9812C15.9596 42.9608 15.9389 42.9523 15.9235 42.9372C15.9081 42.922 15.8994 42.9014 15.8992 42.8798C15.899 42.8582 15.9073 42.8374 15.9224 42.8219C15.9375 42.8065 15.9581 42.7976 15.9797 42.7974H44.5391C44.5606 42.7976 44.5811 42.8063 44.5962 42.8216C44.6114 42.8369 44.6199 42.8575 44.6199 42.879C44.6199 42.9005 44.6114 42.9212 44.5962 42.9365C44.5811 42.9518 44.5606 42.9605 44.5391 42.9607Z" fill="#CCCCCC"/>
<path d="M44.5391 44.9205H15.9812C15.9596 44.9207 15.9389 44.9122 15.9235 44.8971C15.9081 44.8819 15.8994 44.8612 15.8992 44.8396C15.899 44.818 15.9073 44.7972 15.9224 44.7818C15.9375 44.7663 15.9581 44.7575 15.9797 44.7572H44.5391C44.5606 44.7574 44.5811 44.7661 44.5962 44.7814C44.6114 44.7967 44.6199 44.8174 44.6199 44.8389C44.6199 44.8604 44.6114 44.8811 44.5962 44.8963C44.5811 44.9116 44.5606 44.9203 44.5391 44.9205Z" fill="#CCCCCC"/>
<path d="M39.5295 25.4065V36.0225H12.9545C11.5479 36.0715 10.1794 35.5592 9.15021 34.5984C8.12098 33.6376 7.51528 32.3069 7.46635 30.8992C7.41741 29.4914 7.92925 28.1218 8.88927 27.0918C9.84929 26.0617 11.1788 25.4555 12.5854 25.4065C12.7084 25.4022 12.8314 25.4022 12.9545 25.4065H39.5295Z" fill="#F2F2F2"/>
<path d="M40.1822 35.9408C40.1821 36.0491 40.1391 36.1529 40.0626 36.2295C39.9861 36.3061 39.8824 36.3491 39.7742 36.3491H12.481C10.9987 36.3491 9.57705 35.7598 8.52888 34.7108C7.4807 33.6617 6.89185 32.2389 6.89185 30.7553C6.89185 29.2718 7.4807 27.849 8.52888 26.7999C9.57705 25.7509 10.9987 25.1615 12.481 25.1615H39.7742C39.8278 25.1615 39.8808 25.1721 39.9303 25.1926C39.9798 25.2131 40.0248 25.2432 40.0627 25.2811C40.1006 25.319 40.1306 25.364 40.1511 25.4136C40.1716 25.4631 40.1822 25.5162 40.1822 25.5698C40.1822 25.6235 40.1716 25.6765 40.1511 25.7261C40.1306 25.7756 40.1006 25.8206 40.0627 25.8586C40.0248 25.8965 39.9798 25.9265 39.9303 25.9471C39.8808 25.9676 39.8278 25.9781 39.7742 25.9781H12.481C11.2151 25.9781 10.001 26.4815 9.10584 27.3774C8.21068 28.2733 7.70779 29.4884 7.70779 30.7553C7.70779 32.0223 8.21068 33.2374 9.10584 34.1333C10.001 35.0292 11.2151 35.5325 12.481 35.5325H39.7742C39.8824 35.5326 39.9861 35.5756 40.0626 35.6522C40.1391 35.7287 40.1821 35.8326 40.1822 35.9408Z" fill="#3F3D56"/>
<path d="M39.5296 27.8563H10.9717C10.9501 27.8565 10.9293 27.848 10.914 27.8328C10.8986 27.8177 10.8899 27.797 10.8897 27.7754C10.8895 27.7538 10.8978 27.733 10.9129 27.7176C10.928 27.7021 10.9486 27.6933 10.9702 27.693H39.5296C39.5511 27.6932 39.5716 27.7019 39.5867 27.7172C39.6019 27.7325 39.6103 27.7532 39.6103 27.7747C39.6103 27.7962 39.6019 27.8168 39.5867 27.8321C39.5716 27.8474 39.5511 27.8561 39.5296 27.8563Z" fill="#CCCCCC"/>
<path d="M39.5296 29.8162H10.9717C10.9501 29.8164 10.9293 29.8079 10.914 29.7928C10.8986 29.7776 10.8899 29.7569 10.8897 29.7353C10.8895 29.7137 10.8978 29.6929 10.9129 29.6775C10.928 29.662 10.9486 29.6532 10.9702 29.6529H39.5296C39.5511 29.6531 39.5716 29.6618 39.5867 29.6771C39.6019 29.6924 39.6103 29.7131 39.6103 29.7346C39.6103 29.7561 39.6019 29.7768 39.5867 29.792C39.5716 29.8073 39.5511 29.816 39.5296 29.8162Z" fill="#CCCCCC"/>
<path d="M39.5296 31.7761H10.9717C10.9501 31.7762 10.9293 31.7678 10.914 31.7526C10.8986 31.7374 10.8899 31.7168 10.8897 31.6952C10.8895 31.6736 10.8978 31.6528 10.9129 31.6374C10.928 31.6219 10.9486 31.6131 10.9702 31.6128H39.5296C39.5511 31.613 39.5716 31.6217 39.5867 31.637C39.6019 31.6523 39.6103 31.6729 39.6103 31.6945C39.6103 31.716 39.6019 31.7366 39.5867 31.7519C39.5716 31.7672 39.5511 31.7759 39.5296 31.7761Z" fill="#CCCCCC"/>
<path d="M39.5296 33.7359H10.9717C10.9501 33.7361 10.9293 33.7276 10.914 33.7125C10.8986 33.6973 10.8899 33.6766 10.8897 33.655C10.8895 33.6334 10.8978 33.6126 10.9129 33.5972C10.928 33.5817 10.9486 33.5729 10.9702 33.5726H39.5296C39.5511 33.5728 39.5716 33.5815 39.5867 33.5968C39.6019 33.6121 39.6103 33.6328 39.6103 33.6543C39.6103 33.6758 39.6019 33.6965 39.5867 33.7117C39.5716 33.727 39.5511 33.7357 39.5296 33.7359Z" fill="#CCCCCC"/>
<path d="M70.4442 85.3269V76.0707C70.4442 75.6615 70.2818 75.2691 69.9927 74.9798C69.7037 74.6905 69.3116 74.528 68.9028 74.528H33.8354C33.4266 74.528 33.0345 74.6905 32.7454 74.9798C32.4564 75.2691 32.294 75.6615 32.2939 76.0707V85.3269H70.4442Z" fill="#CCCCCC"/>
<path d="M70.4442 88.7979H32.2939V100.754H70.4442V88.7979Z" fill="#CCCCCC"/>
<path d="M32.2939 104.225V113.481C32.294 113.89 32.4564 114.283 32.7454 114.572C33.0345 114.861 33.4266 115.024 33.8354 115.024H68.9028C69.3116 115.024 69.7037 114.861 69.9927 114.572C70.2818 114.283 70.4442 113.89 70.4442 113.481V104.225H32.2939Z" fill="#CCCCCC"/>
<path d="M51.1766 81.4701C51.8151 81.4701 52.3326 80.9521 52.3326 80.3131C52.3326 79.6741 51.8151 79.1561 51.1766 79.1561C50.5381 79.1561 50.0205 79.6741 50.0205 80.3131C50.0205 80.9521 50.5381 81.4701 51.1766 81.4701Z" fill="white"/>
<path d="M51.1766 96.8972C51.8151 96.8972 52.3326 96.3791 52.3326 95.7401C52.3326 95.1011 51.8151 94.5831 51.1766 94.5831C50.5381 94.5831 50.0205 95.1011 50.0205 95.7401C50.0205 96.3791 50.5381 96.8972 51.1766 96.8972Z" fill="white"/>
<path d="M51.2383 111.997C51.8768 111.997 52.3944 111.479 52.3944 110.84C52.3944 110.201 51.8768 109.683 51.2383 109.683C50.5999 109.683 50.0823 110.201 50.0823 110.84C50.0823 111.479 50.5999 111.997 51.2383 111.997Z" fill="white"/>
<path d="M66.1192 63.974V74.59H39.5441C38.1381 74.638 36.7706 74.1253 35.7422 73.1646C34.7138 72.2039 34.1086 70.8738 34.0596 69.4667C34.0107 68.0596 34.522 66.6906 35.4811 65.6607C36.4403 64.6307 37.7689 64.024 39.1748 63.974C39.2978 63.9698 39.421 63.9698 39.5441 63.974H66.1192Z" fill="#F2F2F2"/>
<path d="M66.7719 74.5084C66.7719 74.6166 66.7289 74.7205 66.6524 74.797C66.5759 74.8736 66.4722 74.9166 66.364 74.9167H39.0708C37.5888 74.917 36.1673 74.3283 35.1189 73.2799C34.0706 72.2316 33.4811 70.8094 33.4802 69.3262C33.4793 67.843 34.0671 66.4201 35.1142 65.3705C36.1613 64.3209 37.5821 63.7305 39.0641 63.729H66.364C66.4176 63.7289 66.4708 63.7394 66.5204 63.7598C66.57 63.7803 66.6151 63.8103 66.6531 63.8482C66.6911 63.8862 66.7213 63.9312 66.7418 63.9808C66.7624 64.0305 66.773 64.0836 66.773 64.1373C66.773 64.1911 66.7624 64.2442 66.7418 64.2938C66.7213 64.3434 66.6911 64.3885 66.6531 64.4264C66.6151 64.4644 66.57 64.4944 66.5204 64.5149C66.4708 64.5353 66.4176 64.5458 66.364 64.5457H39.0708C37.8059 64.5473 36.5934 65.0513 35.6996 65.9471C34.8058 66.8428 34.3038 68.0569 34.3038 69.3228C34.3038 70.5887 34.8058 71.8029 35.6996 72.6986C36.5934 73.5943 37.8059 74.0984 39.0708 74.1H66.364C66.4722 74.1001 66.5759 74.1431 66.6524 74.2197C66.7289 74.2962 66.7719 74.4001 66.7719 74.5084Z" fill="#3F3D56"/>
<path d="M66.1191 66.4239H37.5613C37.5397 66.424 37.5189 66.4155 37.5036 66.4003C37.4882 66.3852 37.4795 66.3645 37.4793 66.3429C37.4791 66.3213 37.4874 66.3005 37.5025 66.2851C37.5176 66.2696 37.5382 66.2608 37.5598 66.2605H66.1192C66.1407 66.2607 66.1612 66.2694 66.1763 66.2847C66.1915 66.3 66.1999 66.3207 66.1999 66.3422C66.1999 66.3637 66.1915 66.3844 66.1763 66.3996C66.1612 66.4149 66.1406 66.4236 66.1191 66.4239Z" fill="#CCCCCC"/>
<path d="M66.1191 68.3838H37.5613C37.5397 68.3839 37.5189 68.3754 37.5036 68.3603C37.4882 68.3451 37.4795 68.3244 37.4793 68.3028C37.4791 68.2812 37.4874 68.2604 37.5025 68.245C37.5176 68.2296 37.5382 68.2207 37.5598 68.2204H66.1192C66.1407 68.2206 66.1612 68.2293 66.1763 68.2446C66.1915 68.2599 66.1999 68.2806 66.1999 68.3021C66.1999 68.3236 66.1915 68.3443 66.1763 68.3596C66.1612 68.3748 66.1406 68.3835 66.1191 68.3838Z" fill="#CCCCCC"/>
<path d="M66.1191 70.3436H37.5613C37.5397 70.3438 37.5189 70.3353 37.5036 70.3201C37.4882 70.305 37.4795 70.2843 37.4793 70.2627C37.4791 70.2411 37.4874 70.2203 37.5025 70.2049C37.5176 70.1894 37.5382 70.1806 37.5598 70.1803H66.1192C66.1407 70.1805 66.1612 70.1892 66.1763 70.2045C66.1915 70.2198 66.1999 70.2405 66.1999 70.262C66.1999 70.2835 66.1915 70.3042 66.1763 70.3194C66.1612 70.3347 66.1406 70.3434 66.1191 70.3436Z" fill="#CCCCCC"/>
<path d="M66.1191 72.3035H37.5613C37.5397 72.3036 37.5189 72.2952 37.5036 72.28C37.4882 72.2648 37.4795 72.2442 37.4793 72.2226C37.4791 72.201 37.4874 72.1802 37.5025 72.1647C37.5176 72.1493 37.5382 72.1405 37.5598 72.1402H66.1192C66.1407 72.1404 66.1612 72.1491 66.1763 72.1644C66.1915 72.1797 66.1999 72.2003 66.1999 72.2218C66.1999 72.2433 66.1915 72.264 66.1763 72.2793C66.1612 72.2946 66.1406 72.3033 66.1191 72.3035Z" fill="#CCCCCC"/>
<path d="M34.9082 21.865H22.8003C22.6854 21.865 22.572 21.8913 22.469 21.9422L19.413 23.4733C19.3125 23.5161 19.2267 23.5875 19.1664 23.6787C19.1061 23.7699 19.074 23.8769 19.074 23.9863C19.074 24.0956 19.1061 24.2026 19.1664 24.2938C19.2267 24.385 19.3125 24.4564 19.413 24.4992L22.469 26.0303C22.572 26.0812 22.6854 26.1076 22.8003 26.1075H34.9082C35.075 26.1171 35.239 26.0606 35.3645 25.9502C35.49 25.8397 35.567 25.6842 35.5788 25.5174V22.4551C35.567 22.2883 35.49 22.1328 35.3645 22.0223C35.239 21.9119 35.075 21.8554 34.9082 21.865Z" fill="#3F3D56"/>
<path d="M35.5787 22.4551V25.5174C35.5669 25.6842 35.4899 25.8397 35.3644 25.9502C35.2389 26.0606 35.0749 26.1171 34.9081 26.1075H32.4958V21.865H34.9081C35.0749 21.8554 35.2389 21.9119 35.3644 22.0223C35.4899 22.1328 35.5669 22.2883 35.5787 22.4551Z" fill="#6C63FF"/>
<path d="M103.419 47.5204L102.141 46.9817L101.264 40.5677H89.5853L88.6347 46.9555L87.4909 47.5278C87.4362 47.5552 87.3923 47.6003 87.3664 47.6557C87.3405 47.7112 87.334 47.7738 87.3481 47.8334C87.3621 47.893 87.3959 47.9461 87.4439 47.9841C87.4918 48.0221 87.5512 48.0427 87.6124 48.0427H103.314C103.376 48.0427 103.437 48.021 103.486 47.9813C103.534 47.9416 103.568 47.8862 103.58 47.8247C103.592 47.7632 103.583 47.6993 103.554 47.6438C103.525 47.5884 103.477 47.5448 103.419 47.5204Z" fill="#E6E6E6"/>
<path d="M124.173 41.4211H66.8047C66.5037 41.4204 66.2152 41.3003 66.0026 41.0871C65.7901 40.8738 65.6707 40.5849 65.6707 40.2836V32.1873H125.307V40.2836C125.307 40.5849 125.187 40.8738 124.975 41.087C124.762 41.3003 124.474 41.4204 124.173 41.4211Z" fill="#CCCCCC"/>
<path d="M125.367 36.0138H65.6184V1.37124C65.6188 1.00768 65.7633 0.659142 66.0202 0.402074C66.277 0.145007 66.6253 0.000406794 66.9886 0H123.997C124.36 0.000406787 124.708 0.145008 124.965 0.402074C125.222 0.659141 125.366 1.00768 125.367 1.37124L125.367 36.0138Z" fill="#3F3D56"/>
<path d="M121.798 33.4994H69.1869C68.9068 33.4991 68.6384 33.3876 68.4403 33.1895C68.2423 32.9913 68.1309 32.7226 68.1306 32.4423V3.57148C68.1309 3.29119 68.2423 3.02248 68.4403 2.82428C68.6383 2.62609 68.9068 2.5146 69.1869 2.51428H121.798C122.078 2.5146 122.347 2.62609 122.545 2.82428C122.743 3.02248 122.854 3.29119 122.855 3.57148V32.4423C122.854 32.7226 122.743 32.9913 122.545 33.1895C122.347 33.3876 122.078 33.4991 121.798 33.4994Z" fill="white"/>
<path d="M107.941 43.6865C108.281 43.3725 108.685 43.1368 109.126 42.9962C109.566 42.8555 110.032 42.8131 110.491 42.8722C110.949 42.9312 111.389 43.0902 111.78 43.3379C112.171 43.5856 112.502 43.916 112.751 44.3058L119.868 43.0395L121.691 47.18L111.617 48.8269C110.935 49.2025 110.139 49.3147 109.379 49.1421C108.62 48.9695 107.951 48.5243 107.498 47.8906C107.045 47.257 106.839 46.4791 106.921 45.7042C107.003 44.9294 107.366 44.2115 107.941 43.6865Z" fill="#FFB6B6"/>
<path d="M114.53 48.9732L121.949 48.8807L122.888 48.8679L137.982 48.6776C137.982 48.6776 142.081 44.764 145.65 40.7346L145.15 37.1132C144.662 33.5592 142.9 30.3037 140.193 27.9525C135.081 31.3711 132.117 38.1377 132.117 38.1377L122.758 40.378L121.822 40.6021L116.006 41.9928L114.53 48.9732Z" fill="#2B93FF"/>
<path d="M152.508 71.2316H138.66C138.66 71.8255 123.522 72.3074 123.522 72.3074C123.188 72.5591 122.883 72.8478 122.614 73.1681C121.806 74.1327 121.365 75.352 121.367 76.6108V77.4715C121.368 78.8979 121.934 80.2659 122.942 81.2745C123.95 82.2832 125.317 82.8501 126.742 82.8506H152.508C153.933 82.8494 155.299 82.2823 156.307 81.2737C157.315 80.2652 157.881 78.8977 157.883 77.4715V76.6108C157.881 75.1847 157.314 73.8177 156.306 72.8093C155.299 71.801 153.933 71.2336 152.508 71.2316Z" fill="#E4E4E4"/>
<path d="M142.437 82.6369H136.848V114.928H142.437V82.6369Z" fill="#E4E4E4"/>
<path d="M120.938 114.731C120.938 115.336 129.409 114.965 139.858 114.965C150.306 114.965 158.777 115.336 158.777 114.731C158.777 114.127 150.306 109.333 139.858 109.333C129.409 109.333 120.938 114.127 120.938 114.731Z" fill="#E4E4E4"/>
<path d="M117.184 111.042L113.024 111.041L111.045 94.9821L117.184 94.9824L117.184 111.042Z" fill="#FFB6B6"/>
<path d="M118.245 115.078L104.831 115.077V114.907C104.831 113.521 105.381 112.192 106.36 111.213C107.339 110.233 108.667 109.682 110.052 109.682H110.052L118.245 109.682L118.245 115.078Z" fill="#2F2E41"/>
<path d="M104.888 111.042L100.728 111.041L98.749 94.9821L104.889 94.9824L104.888 111.042Z" fill="#FFB6B6"/>
<path d="M105.949 115.078L92.5352 115.077V114.907C92.5353 113.521 93.0854 112.192 94.0645 111.213C95.0436 110.233 96.3716 109.682 97.7562 109.682H97.7566L105.949 109.682L105.949 115.078Z" fill="#2F2E41"/>
<path d="M142.153 18.586C146.148 18.586 149.387 15.3448 149.387 11.3467C149.387 7.34858 146.148 4.10745 142.153 4.10745C138.159 4.10745 134.92 7.34858 134.92 11.3467C134.92 15.3448 138.159 18.586 142.153 18.586Z" fill="#FFB6B6"/>
<path d="M153.86 60.9473C153.86 60.9473 156.287 73.7914 147.053 75.427C137.819 77.0626 124.489 78.2122 124.489 78.2122L118.503 106.164L110.461 105.445C110.461 105.445 111.53 71.7977 114.161 69.1653C116.791 66.5328 133.415 58.6506 133.415 58.6506L153.86 60.9473Z" fill="#2F2E41"/>
<path d="M135.825 55.5642L131.786 59.6192C131.786 59.6192 102.625 64.3201 101.5 71.061C99.8018 81.2381 97.7957 103.369 97.7957 103.369L106.563 102.711L110.001 77.5541L124.03 74.3605L139.99 65.6553L135.825 55.5642Z" fill="#2F2E41"/>
<path d="M149.114 7.02545C148.4 5.67714 147.493 2.98999 146.051 2.49163C145.251 2.22603 144.424 2.04967 143.585 1.96574L141.135 2.90869L142.468 1.87093C142.209 1.85545 141.949 1.8428 141.69 1.83297L140.037 2.46918L140.883 1.81095C139.342 1.79513 137.752 1.95548 136.558 2.89428C135.54 3.69461 134.531 6.72643 134.368 8.01156C134.194 9.24096 134.255 10.4923 134.548 11.6989L134.967 12.0973C135.113 11.7613 135.223 11.4105 135.295 11.0511C135.445 10.3795 135.733 9.74652 136.141 9.19256C136.549 8.63859 137.068 8.17577 137.665 7.83359L137.687 7.82073C138.389 7.4253 139.241 7.44353 140.046 7.47253L143.87 7.61023C144.79 7.64336 145.78 7.70161 146.497 8.27911C146.953 8.70512 147.312 9.22473 147.548 9.80231C147.904 10.5222 148.601 13.2372 148.601 13.2372C148.601 13.2372 148.995 12.7247 149.184 13.1062C149.486 12.1109 149.671 11.0833 149.732 10.0448C149.792 9.00164 149.579 7.96082 149.114 7.02545Z" fill="#2F2E41"/>
<path d="M174.413 14.5259C173.951 14.5563 173.502 14.6876 173.097 14.9105C172.692 15.1334 172.34 15.4426 172.067 15.8161C171.794 16.1897 171.606 16.6186 171.517 17.0727C171.428 17.5267 171.439 17.9949 171.55 18.4442L165.733 22.7383L167.478 26.9125L175.608 20.7328C176.349 20.4962 176.979 19.9956 177.376 19.3257C177.774 18.6558 177.912 17.8632 177.765 17.0981C177.617 16.333 177.195 15.6486 176.577 15.1745C175.959 14.7004 175.189 14.4697 174.413 14.5259Z" fill="#FFB6B6"/>
<path d="M173.476 23.2925L158.895 39.5005C158.895 39.5005 151.921 37.2664 146.528 34.8442L144.105 27.3967C143.543 25.669 143.303 23.8525 143.397 22.0378C150.873 20.0467 159.569 27.4551 159.569 27.4551L170.484 18.8983L173.476 23.2925Z" fill="#2B93FF"/>
<path d="M139.452 62.1444C136.85 61.245 134.16 60.3151 131.258 59.9659L131.134 59.9509L131.168 59.8301C134.172 49.2752 133.422 42.5232 131.95 32.381C131.637 30.1933 132.039 27.9629 133.097 26.0228C134.154 24.0827 135.81 22.5369 137.818 21.616L137.836 21.608L146.123 21.081L146.142 21.0798L152.169 22.8539C153.036 23.111 153.795 23.6455 154.329 24.3755C154.863 25.1055 155.144 25.9908 155.128 26.8957C155.062 30.2312 155.201 33.9551 155.348 37.8977C155.676 46.7425 156.017 55.8886 154.087 61.8228L154.077 61.8539L154.051 61.8741C152.277 63.3202 150.054 64.1016 147.766 64.0836C145.061 64.0835 142.3 63.1292 139.452 62.1444Z" fill="#2B93FF"/>
<path d="M199.711 116H0.289018C0.212366 116 0.138854 115.93 0.0846526 115.805C0.0304514 115.68 0 115.51 0 115.333C0 115.157 0.0304514 114.987 0.0846526 114.862C0.138854 114.737 0.212366 114.667 0.289018 114.667H199.711C199.788 114.667 199.861 114.737 199.915 114.862C199.97 114.987 200 115.157 200 115.333C200 115.51 199.97 115.68 199.915 115.805C199.861 115.93 199.788 116 199.711 116Z" fill="#CCCCCC"/>
</svg>
