<svg width="200" height="124" viewBox="0 0 200 124" fill="none" xmlns="http://www.w3.org/2000/svg">
<g clip-path="url(#clip0_569_1258)">
<path d="M53.4873 30.8845H28.6245V31.2397H53.4873V30.8845Z" fill="#F2F2F2"/>
<path d="M35.7282 27.6878H35.373V30.9733H35.7282V27.6878Z" fill="#F2F2F2"/>
<path d="M46.5612 27.6878H46.2061V30.9733H46.5612V27.6878Z" fill="#F2F2F2"/>
<path d="M44.9629 13.1254H20.1001V13.4805H44.9629V13.1254Z" fill="#F2F2F2"/>
<path d="M38.2146 13.3918H37.8594V16.6772H38.2146V13.3918Z" fill="#F2F2F2"/>
<path d="M27.3813 13.3918H27.0261V16.6772H27.3813V13.3918Z" fill="#F2F2F2"/>
<path d="M84.3881 37.9881H59.5254V38.3433H84.3881V37.9881Z" fill="#F2F2F2"/>
<path d="M66.6291 34.7915H66.2739V38.0769H66.6291V34.7915Z" fill="#F2F2F2"/>
<path d="M77.4621 34.7915H77.1069V38.0769H77.4621V34.7915Z" fill="#F2F2F2"/>
<path d="M75.8637 20.229H51.001V20.5842H75.8637V20.229Z" fill="#F2F2F2"/>
<path d="M69.1154 20.4954H68.7603V23.7808H69.1154V20.4954Z" fill="#F2F2F2"/>
<path d="M58.2822 20.4954H57.927V23.7808H58.2822V20.4954Z" fill="#F2F2F2"/>
<path d="M74.6206 98.3691H49.7578V98.7243H74.6206V98.3691Z" fill="#F2F2F2"/>
<path d="M56.8615 95.1725H56.5063V98.4579H56.8615V95.1725Z" fill="#F2F2F2"/>
<path d="M67.6945 95.1725H67.3394V98.4579H67.6945V95.1725Z" fill="#F2F2F2"/>
<path d="M66.0964 80.61H41.2336V80.9652H66.0964V80.61Z" fill="#F2F2F2"/>
<path d="M59.3479 80.8764H58.9927V84.1618H59.3479V80.8764Z" fill="#F2F2F2"/>
<path d="M48.5149 80.8764H48.1597V84.1618H48.5149V80.8764Z" fill="#F2F2F2"/>
<path d="M63.2549 60.0094H38.3921V60.3646H63.2549V60.0094Z" fill="#F2F2F2"/>
<path d="M45.4958 56.8128H45.1406V60.0982H45.4958V56.8128Z" fill="#F2F2F2"/>
<path d="M56.3288 56.8128H55.9736V60.0982H56.3288V56.8128Z" fill="#F2F2F2"/>
<path d="M54.7304 42.2503H29.8677V42.6055H54.7304V42.2503Z" fill="#F2F2F2"/>
<path d="M47.9819 42.5167H47.6267V45.8021H47.9819V42.5167Z" fill="#F2F2F2"/>
<path d="M37.1489 42.5167H36.7937V45.8021H37.1489V42.5167Z" fill="#F2F2F2"/>
<path d="M45.3181 87.0033H20.4553V87.3584H45.3181V87.0033Z" fill="#F2F2F2"/>
<path d="M27.559 83.8066H27.2039V87.0921H27.559V83.8066Z" fill="#F2F2F2"/>
<path d="M38.392 83.8066H38.0369V87.0921H38.392V83.8066Z" fill="#F2F2F2"/>
<path d="M36.7937 69.2442H11.9309V69.5994H36.7937V69.2442Z" fill="#F2F2F2"/>
<path d="M30.0454 69.5106H29.6902V72.796H30.0454V69.5106Z" fill="#F2F2F2"/>
<path d="M19.2121 69.5106H18.8569V72.796H19.2121V69.5106Z" fill="#F2F2F2"/>
<path d="M169.099 30.8845H144.236V31.2397H169.099V30.8845Z" fill="#F2F2F2"/>
<path d="M151.34 27.6878H150.985V30.9733H151.34V27.6878Z" fill="#F2F2F2"/>
<path d="M162.173 27.6878H161.818V30.9733H162.173V27.6878Z" fill="#F2F2F2"/>
<path d="M160.575 13.1254H135.712V13.4805H160.575V13.1254Z" fill="#F2F2F2"/>
<path d="M153.826 13.3918H153.471V16.6772H153.826V13.3918Z" fill="#F2F2F2"/>
<path d="M142.993 13.3918H142.638V16.6772H142.993V13.3918Z" fill="#F2F2F2"/>
<path d="M200 37.9881H175.137V38.3433H200V37.9881Z" fill="#F2F2F2"/>
<path d="M182.241 34.7915H181.886V38.0769H182.241V34.7915Z" fill="#F2F2F2"/>
<path d="M193.074 34.7915H192.719V38.0769H193.074V34.7915Z" fill="#F2F2F2"/>
<path d="M191.476 20.229H166.613V20.5842H191.476V20.229Z" fill="#F2F2F2"/>
<path d="M184.727 20.4954H184.372V23.7808H184.727V20.4954Z" fill="#F2F2F2"/>
<path d="M173.894 20.4954H173.539V23.7808H173.894V20.4954Z" fill="#F2F2F2"/>
<path d="M190.232 98.3691H165.37V98.7243H190.232V98.3691Z" fill="#F2F2F2"/>
<path d="M172.473 95.1725H172.118V98.4579H172.473V95.1725Z" fill="#F2F2F2"/>
<path d="M183.306 95.1725H182.951V98.4579H183.306V95.1725Z" fill="#F2F2F2"/>
<path d="M181.708 80.61H156.845V80.9652H181.708V80.61Z" fill="#F2F2F2"/>
<path d="M174.96 80.8764H174.604V84.1618H174.96V80.8764Z" fill="#F2F2F2"/>
<path d="M164.127 80.8764H163.771V84.1618H164.127V80.8764Z" fill="#F2F2F2"/>
<path d="M178.867 60.0094H154.004V60.3646H178.867V60.0094Z" fill="#F2F2F2"/>
<path d="M161.108 56.8128H160.752V60.0982H161.108V56.8128Z" fill="#F2F2F2"/>
<path d="M171.941 56.8128H171.585V60.0982H171.941V56.8128Z" fill="#F2F2F2"/>
<path d="M170.342 42.2503H145.479V42.6055H170.342V42.2503Z" fill="#F2F2F2"/>
<path d="M163.594 42.5167H163.239V45.8021H163.594V42.5167Z" fill="#F2F2F2"/>
<path d="M152.761 42.5167H152.406V45.8021H152.761V42.5167Z" fill="#F2F2F2"/>
<path d="M160.93 87.0033H136.067V87.3584H160.93V87.0033Z" fill="#F2F2F2"/>
<path d="M143.171 83.8066H142.816V87.0921H143.171V83.8066Z" fill="#F2F2F2"/>
<path d="M154.004 83.8066H153.649V87.0921H154.004V83.8066Z" fill="#F2F2F2"/>
<path d="M152.405 69.2442H127.543V69.5994H152.405V69.2442Z" fill="#F2F2F2"/>
<path d="M145.657 69.5106H145.302V72.796H145.657V69.5106Z" fill="#F2F2F2"/>
<path d="M134.824 69.5106H134.469V72.796H134.824V69.5106Z" fill="#F2F2F2"/>
<path d="M98.9953 0H64.4539V49.0152H98.9953V0Z" fill="#CCCCCC"/>
<path d="M143.304 58.7827H108.763V107.798H143.304V58.7827Z" fill="#CCCCCC"/>
<path d="M143.304 0H108.763V49.0152H143.304V0Z" fill="#CCCCCC"/>
<path d="M98.9953 58.7827H64.4539V107.798H98.9953V58.7827Z" fill="#CCCCCC"/>
<path d="M188.057 107.643H16.9465V108.041H188.057V107.643Z" fill="#2F2E41"/>
<path d="M20.2335 104.956H18.28V121.472C18.28 121.472 30.889 125.557 43.1428 121.472V104.956H20.2335Z" fill="#CCCCCC"/>
<path d="M30.5338 106.91C37.3014 106.91 42.7876 106.075 42.7876 105.045C42.7876 104.015 37.3014 103.18 30.5338 103.18C23.7662 103.18 18.28 104.015 18.28 105.045C18.28 106.075 23.7662 106.91 30.5338 106.91Z" fill="#3F3D56"/>
<path opacity="0.1" d="M30.5338 106.91C37.3014 106.91 42.7876 106.075 42.7876 105.045C42.7876 104.015 37.3014 103.18 30.5338 103.18C23.7662 103.18 18.28 104.015 18.28 105.045C18.28 106.075 23.7662 106.91 30.5338 106.91Z" fill="black"/>
<path d="M44.7781 85.2235C41.6869 96.6506 31.0987 103.728 31.0987 103.728C31.0987 103.728 25.5225 92.2778 28.6137 80.8507C31.7049 69.4237 42.2931 62.3466 42.2931 62.3466C42.2931 62.3466 47.8693 73.7965 44.7781 85.2235Z" fill="#CCCCCC"/>
<path d="M16.6566 85.2235C19.7479 96.6506 30.336 103.728 30.336 103.728C30.336 103.728 35.9123 92.2778 32.8211 80.8507C29.7299 69.4237 19.1417 62.3466 19.1417 62.3466C19.1417 62.3466 13.5654 73.7965 16.6566 85.2235Z" fill="#2B93FF"/>
<path d="M21.199 82.7677C29.6813 91.025 30.7174 103.718 30.7174 103.718C30.7174 103.718 18.0008 103.024 9.51844 94.7667C1.03607 86.5094 0 73.8161 0 73.8161C0 73.8161 12.7166 74.5105 21.199 82.7677Z" fill="#CCCCCC"/>
<path d="M40.2357 82.7677C31.7533 91.025 30.7173 103.718 30.7173 103.718C30.7173 103.718 43.4339 103.024 51.9162 94.7667C60.3986 86.5094 61.4347 73.8161 61.4347 73.8161C61.4347 73.8161 48.7181 74.5105 40.2357 82.7677Z" fill="#CCCCCC"/>
<path d="M30.7114 66.2415C32.8692 66.2415 34.6185 64.4923 34.6185 62.3345C34.6185 60.1767 32.8692 58.4275 30.7114 58.4275C28.5537 58.4275 26.8044 60.1767 26.8044 62.3345C26.8044 64.4923 28.5537 66.2415 30.7114 66.2415Z" fill="#2B93FF"/>
<path d="M78.1285 26.8162C78.4227 26.8162 78.6612 26.5777 78.6612 26.2835C78.6612 25.9892 78.4227 25.7507 78.1285 25.7507C77.8342 25.7507 77.5957 25.9892 77.5957 26.2835C77.5957 26.5777 77.8342 26.8162 78.1285 26.8162Z" fill="white"/>
<path d="M75.642 19.8902C79.0748 19.8902 81.8576 17.1074 81.8576 13.6745C81.8576 10.2417 79.0748 7.45883 75.642 7.45883C72.2091 7.45883 69.4263 10.2417 69.4263 13.6745C69.4263 17.1074 72.2091 19.8902 75.642 19.8902Z" fill="white"/>
<path d="M85.5873 22.3765C85.6853 22.3765 85.7649 22.297 85.7649 22.1989C85.7649 22.1008 85.6853 22.0213 85.5873 22.0213C85.4892 22.0213 85.4097 22.1008 85.4097 22.1989C85.4097 22.297 85.4892 22.3765 85.5873 22.3765Z" fill="white"/>
<path d="M116.843 31.256C116.941 31.256 117.021 31.1765 117.021 31.0784C117.021 30.9804 116.941 30.9008 116.843 30.9008C116.745 30.9008 116.666 30.9804 116.666 31.0784C116.666 31.1765 116.745 31.256 116.843 31.256Z" fill="white"/>
<path d="M114.89 84.3558C114.988 84.3558 115.067 84.2763 115.067 84.1782C115.067 84.0801 114.988 84.0006 114.89 84.0006C114.792 84.0006 114.712 84.0801 114.712 84.1782C114.712 84.2763 114.792 84.3558 114.89 84.3558Z" fill="white"/>
<path d="M77.4181 96.6096C77.5162 96.6096 77.5957 96.5301 77.5957 96.432C77.5957 96.3339 77.5162 96.2544 77.4181 96.2544C77.32 96.2544 77.2405 96.3339 77.2405 96.432C77.2405 96.5301 77.32 96.6096 77.4181 96.6096Z" fill="white"/>
<path d="M129.807 37.4717C129.906 37.4717 129.985 37.3922 129.985 37.2941C129.985 37.1961 129.906 37.1165 129.807 37.1165C129.709 37.1165 129.63 37.1961 129.63 37.2941C129.63 37.3922 129.709 37.4717 129.807 37.4717Z" fill="white"/>
<path d="M128.032 22.5541C128.13 22.5541 128.209 22.4746 128.209 22.3765C128.209 22.2784 128.13 22.1989 128.032 22.1989C127.934 22.1989 127.854 22.2784 127.854 22.3765C127.854 22.4746 127.934 22.5541 128.032 22.5541Z" fill="white"/>
<path d="M121.993 70.5037C122.091 70.5037 122.171 70.4242 122.171 70.3261C122.171 70.228 122.091 70.1485 121.993 70.1485C121.895 70.1485 121.816 70.228 121.816 70.3261C121.816 70.4242 121.895 70.5037 121.993 70.5037Z" fill="white"/>
<path d="M112.403 43.865C112.502 43.865 112.581 43.7855 112.581 43.6874C112.581 43.5893 112.502 43.5098 112.403 43.5098C112.305 43.5098 112.226 43.5893 112.226 43.6874C112.226 43.7855 112.305 43.865 112.403 43.865Z" fill="white"/>
<path d="M113.824 18.8247C113.922 18.8247 114.002 18.7452 114.002 18.6471C114.002 18.549 113.922 18.4695 113.824 18.4695C113.726 18.4695 113.646 18.549 113.646 18.6471C113.646 18.7452 113.726 18.8247 113.824 18.8247Z" fill="white"/>
<path d="M129.985 8.70195C130.083 8.70195 130.163 8.62244 130.163 8.52436C130.163 8.42628 130.083 8.34677 129.985 8.34677C129.887 8.34677 129.807 8.42628 129.807 8.52436C129.807 8.62244 129.887 8.70195 129.985 8.70195Z" fill="white"/>
<path d="M77.7733 80.6264C77.8714 80.6264 77.9509 80.5469 77.9509 80.4488C77.9509 80.3507 77.8714 80.2712 77.7733 80.2712C77.6752 80.2712 77.5957 80.3507 77.5957 80.4488C77.5957 80.5469 77.6752 80.6264 77.7733 80.6264Z" fill="white"/>
<path d="M93.046 94.1233C93.1441 94.1233 93.2236 94.0438 93.2236 93.9457C93.2236 93.8476 93.1441 93.7681 93.046 93.7681C92.9479 93.7681 92.8684 93.8476 92.8684 93.9457C92.8684 94.0438 92.9479 94.1233 93.046 94.1233Z" fill="white"/>
<path d="M73.5111 67.307C73.6092 67.307 73.6887 67.2275 73.6887 67.1294C73.6887 67.0314 73.6092 66.9518 73.5111 66.9518C73.413 66.9518 73.3335 67.0314 73.3335 67.1294C73.3335 67.2275 73.413 67.307 73.5111 67.307Z" fill="white"/>
<path d="M77.9508 43.865C78.0489 43.865 78.1284 43.7855 78.1284 43.6874C78.1284 43.5893 78.0489 43.5098 77.9508 43.5098C77.8527 43.5098 77.7732 43.5893 77.7732 43.6874C77.7732 43.7855 77.8527 43.865 77.9508 43.865Z" fill="white"/>
<path opacity="0.1" d="M77.9507 43.865L98.9952 34.7954V37.1965L77.9507 43.865Z" fill="white"/>
<path opacity="0.1" d="M143.304 15.7008V23.1543L108.763 34.1011V30.5865L143.304 15.7008Z" fill="white"/>
<path opacity="0.1" d="M88.2581 70.1449L98.9952 64.2294V65.0516C92.9909 67.9588 88.4676 70.049 88.2581 70.1449Z" fill="white"/>
<path opacity="0.1" d="M108.884 58.7827H111.592C110.653 59.2675 109.71 59.7488 108.763 60.2265V58.8501L108.884 58.7827Z" fill="white"/>
<path opacity="0.1" d="M130.162 47.0616C130.081 47.5323 129.461 48.2 128.429 49.0151H126.616L130.162 47.0616Z" fill="white"/>
<path opacity="0.1" d="M143.304 78.9144V80.1682C134.084 84.7696 125.661 88.6606 125.375 88.792L143.304 78.9144Z" fill="white"/>
<path d="M122.526 80.6597C122.526 80.3074 122.425 79.9626 122.235 79.6659C122.045 79.3692 121.774 79.1332 121.454 78.9857L121.511 78.2603H117.543L118.004 82.9667H121.142L121.184 82.4341C121.57 82.3247 121.91 82.0922 122.153 81.772C122.395 81.4518 122.526 81.0612 122.526 80.6597ZM121.206 82.1533L121.426 79.3511C121.616 79.5392 121.763 79.7666 121.857 80.0174C121.95 80.2682 121.988 80.5364 121.967 80.8033C121.946 81.0702 121.867 81.3292 121.736 81.5624C121.604 81.7956 121.423 81.9973 121.206 82.1533Z" fill="#6C63FF"/>
<path d="M118.248 76.829C118.248 76.829 122.94 80.1804 121.376 81.521C119.812 82.8615 116.684 77.4993 116.684 77.4993L118.248 76.829Z" fill="#FFB9B9"/>
<path d="M96.5754 81.9678C96.5754 81.9678 97.4692 93.1392 97.6926 94.7032C97.916 96.2672 98.1394 110.343 98.5863 111.907C99.0331 113.471 99.48 117.269 99.48 117.269H102.161C102.161 117.269 101.938 110.343 102.608 107.662C103.278 104.981 103.055 97.6077 103.055 97.6077C103.055 97.6077 104.395 84.4255 103.725 82.6381C103.055 80.8507 96.5754 81.9678 96.5754 81.9678Z" fill="#FFB9B9"/>
<path d="M100.15 116.599C100.15 116.599 99.0331 117.269 99.0331 117.716C99.0331 118.163 99.2565 119.28 99.0331 119.727C98.8097 120.174 97.2457 121.961 98.1394 122.408C99.0331 122.855 103.055 122.408 103.055 122.408C103.055 122.408 102.831 119.28 102.608 119.057C102.385 118.833 102.831 116.599 102.831 116.599H100.15Z" fill="#2F2E41"/>
<path d="M113.655 81.694C113.655 81.694 113.939 92.8975 113.881 94.4763C113.823 96.0551 115.078 110.077 114.798 111.679C114.518 113.281 114.472 117.105 114.472 117.105L111.806 117.387C111.806 117.387 111.301 110.475 110.353 107.879C109.405 105.283 108.853 97.9276 108.853 97.9276C108.853 97.9276 106.137 84.959 106.615 83.1111C107.094 81.2632 113.655 81.694 113.655 81.694Z" fill="#FFB9B9"/>
<path d="M113.735 116.509C113.735 116.509 114.916 117.058 114.963 117.503C115.01 117.947 114.905 119.082 115.174 119.503C115.444 119.924 117.187 121.537 116.345 122.075C115.503 122.613 111.456 122.591 111.456 122.591C111.456 122.591 111.35 119.457 111.549 119.211C111.748 118.966 111.069 116.791 111.069 116.791L113.735 116.509Z" fill="#2F2E41"/>
<path d="M99.7035 65.2108C99.7035 65.2108 97.9161 65.4342 97.2458 69.2325C96.5756 73.0308 94.1179 82.6381 96.1287 83.3084C98.1396 83.9787 104.172 85.3192 104.396 84.8724C104.619 84.4255 105.066 83.3084 105.066 83.3084C105.066 83.3084 104.396 85.3193 105.289 85.3193C106.183 85.3193 114.897 83.9787 114.673 83.3084C114.45 82.6381 114.003 77.7227 114.003 77.7227C114.003 77.7227 112.662 69.4559 111.322 68.1154C110.934 67.7429 110.633 67.2896 110.44 66.7876C110.246 66.2856 110.166 65.7473 110.205 65.2108H99.7035Z" fill="#2F2E41"/>
<path d="M96.3521 63.4234C96.3521 63.4234 99.2566 62.7531 99.7035 63.6468C100.15 64.5405 98.5864 65.8811 97.9161 65.8811C97.2458 65.8811 96.1287 65.2108 96.1287 65.2108L96.3521 63.4234Z" fill="#FFB9B9"/>
<path d="M106.635 44.139C108.856 44.139 110.657 42.3384 110.657 40.1173C110.657 37.8962 108.856 36.0956 106.635 36.0956C104.414 36.0956 102.613 37.8962 102.613 40.1173C102.613 42.3384 104.414 44.139 106.635 44.139Z" fill="#FFB9B9"/>
<path d="M104.205 42.8727C104.205 42.8727 103.725 46.4429 103.278 46.4429C102.831 46.4429 106.63 48.4538 106.63 48.4538L109.534 48.0069L110.428 46.6663C110.428 46.6663 109.042 44.5136 109.042 42.7262C109.042 40.9387 104.205 42.8727 104.205 42.8727Z" fill="#FFB9B9"/>
<path d="M105.066 46.4429C105.066 46.4429 104.395 45.9961 104.172 45.9961H102.385C102.161 45.9961 99.2567 46.6663 99.2567 46.6663L97.4692 56.7206C97.4692 56.7206 100.597 61.8594 98.3629 65.8811C98.3629 65.8811 99.0332 65.4342 102.161 65.6576C105.289 65.8811 110.875 66.5513 111.098 66.5513C111.322 66.5513 111.322 64.7639 111.098 64.3171C110.875 63.8702 111.322 64.0937 111.322 62.9765C111.322 61.8594 111.992 59.8485 111.992 59.8485L115.12 48.4538C115.12 48.4538 111.098 46.2195 110.428 46.4429C109.758 46.6663 107.747 47.3366 107.3 47.1132C106.853 46.8898 105.066 46.4429 105.066 46.4429Z" fill="#2B93FF"/>
<path d="M99.9269 46.8898L99.2566 46.6663C99.2566 46.6663 97.9161 46.4429 96.3521 47.7835C94.7881 49.124 88.979 53.1457 88.979 53.1457C88.979 53.1457 86.7447 54.9331 87.415 56.944C88.0853 58.9548 89.2024 63.8702 92.5538 63.6468C92.5538 63.6468 94.5647 66.3279 95.6818 65.8811C96.7989 65.4342 97.6926 63.6468 97.0224 63.4234C96.3521 63.2 94.5647 60.9657 94.5647 60.9657L96.7989 56.7206H97.4692L99.9269 55.38L99.9269 46.8898Z" fill="#2B93FF"/>
<path d="M113.333 48.2303L115.12 48.4538C115.12 48.4538 116.684 49.1241 116.461 52.0286C116.237 54.9332 117.801 68.1154 117.131 69.6793C117.131 69.6793 119.365 77.2759 118.918 77.4993C118.471 77.7227 115.79 79.0633 116.014 78.1696C116.237 77.2759 113.556 71.0199 113.556 71.0199C113.556 71.0199 110.428 67.6685 111.769 62.9765V59.1783L113.333 48.2303Z" fill="#2B93FF"/>
<path d="M117.062 43.7284C116.564 43.0234 115.951 42.4074 115.425 41.7228C114.212 40.1444 113.792 38.0413 112.165 36.8309C110.554 35.6332 107.999 34.4544 105.984 34.5488C103.328 34.6733 101.221 36.7337 99.3898 38.6618C97.9907 40.1351 96.5915 41.6085 95.1923 43.0819C94.1801 44.1478 93.1306 45.2793 92.7658 46.7033C92.4151 48.0718 92.7573 49.542 93.3992 50.8005C94.0663 52.0771 95.0019 53.194 96.1418 54.0744C97.5469 52.1397 99.5153 49.4682 99.5153 49.4682L99.9736 56.1132C102.354 56.9021 104.911 57.0572 107.42 56.8828L108.163 54.1583L108.943 56.7319C111.94 56.3345 114.952 55.2994 116.808 52.9601C118.859 50.3737 118.968 46.4239 117.062 43.7284Z" fill="#2F2E41"/>
<path d="M100.322 43.0574C99.9076 40.9756 100.356 38.8188 101.748 37.1671C104.321 34.1155 109.137 33.9441 112.506 36.7842C113.85 37.9049 114.815 39.4139 115.267 41.1044C114.88 39.2331 113.87 37.5487 112.4 36.327C109.032 33.4869 104.215 33.6583 101.643 36.7098C100.148 38.4829 99.7413 40.8379 100.322 43.0574Z" fill="#2F2E41"/>
<path d="M92.4076 52.8773C91.9931 50.7956 92.441 48.6387 93.8336 46.987C96.4064 43.9355 101.223 43.7641 104.591 46.6042C105.935 47.7248 106.9 49.2338 107.353 50.9243C106.966 49.0531 105.955 47.3687 104.486 46.1469C101.117 43.3068 96.3008 43.4782 93.728 46.5297C92.2331 48.3028 91.8267 50.6578 92.4076 52.8773Z" fill="#2F2E41"/>
<path d="M110.357 41.941C112.47 41.7331 114.572 42.3909 116.079 43.9391C118.863 46.7995 118.56 51.6094 115.402 54.6824C114.155 55.9098 112.558 56.7213 110.831 57.0056C112.732 56.8046 114.507 55.9643 115.868 54.6223C119.025 51.5493 119.328 46.7394 116.544 43.8791C114.927 42.2171 112.623 41.5811 110.357 41.941Z" fill="#2F2E41"/>
<path opacity="0.1" d="M120.348 70.3981C120.143 70.3503 119.928 70.3661 119.731 70.4432C119.535 70.5203 119.367 70.6552 119.249 70.83C119.166 70.9651 119.106 71.1131 119.071 71.268C118.974 71.692 118.993 72.1345 119.128 72.5483C119.262 72.962 119.507 73.3315 119.835 73.6171C120.007 73.7438 120.17 73.8822 120.323 74.0315C120.465 74.2031 120.563 74.4062 120.61 74.6237C120.657 74.8412 120.65 75.0668 120.592 75.2815C120.469 75.7114 120.212 76.091 119.859 76.3652C119.785 76.4153 119.724 76.4812 119.679 76.5581C119.559 76.8152 119.868 77.0598 119.947 77.3324" fill="white"/>
</g>
<defs>
<clipPath id="clip0_569_1258">
<rect width="200" height="123.288" fill="white"/>
</clipPath>
</defs>
</svg>
