<svg width="210" height="126" viewBox="0 0 210 126" fill="none" xmlns="http://www.w3.org/2000/svg">
<g clip-path="url(#clip0_569_1373)">
<path d="M160.781 124.168C158.092 121.896 156.459 118.306 156.888 114.811C157.316 111.316 159.968 108.103 163.409 107.361C166.85 106.619 170.772 108.673 171.817 112.036C172.393 105.554 173.055 98.7998 176.501 93.2797C179.62 88.2814 185.023 84.7049 190.879 84.0651C196.735 83.4252 202.901 85.8418 206.553 90.4652C210.205 95.0885 211.099 101.81 208.541 107.118C206.657 111.028 203.185 113.938 199.548 116.306C187.795 123.891 173.699 126.976 159.852 124.992L160.781 124.168Z" fill="#F2F2F2"/>
<path d="M200.762 85.9758C195.93 89.9125 191.497 94.3155 187.528 99.1209C181.316 106.616 176.289 115.019 172.622 124.037C172.354 124.695 173.422 124.982 173.687 124.331C179.687 109.674 189.264 96.7555 201.543 86.757C202.094 86.3078 201.309 85.5303 200.762 85.9758Z" fill="white"/>
<path d="M67.6024 123.551C71.2951 120.429 73.5382 115.499 72.9499 110.699C72.3617 105.899 68.7184 101.486 63.9924 100.466C59.2665 99.4472 53.8793 102.269 52.4438 106.887C51.6539 97.9835 50.7435 88.7073 46.0115 81.1255C41.7267 74.2603 34.3054 69.348 26.2624 68.4691C18.2193 67.5903 9.75105 70.9095 4.73491 77.2597C-0.28123 83.6098 -1.50941 92.8416 2.00376 100.132C4.5918 105.503 9.35987 109.5 14.3556 112.751C30.2938 123.125 50.0651 127.452 68.8777 124.683" fill="#F2F2F2"/>
<path d="M12.6885 71.0935C19.325 76.5006 25.4133 82.5481 30.8653 89.1484C36.3182 95.7419 41.1188 102.849 45.1999 110.37C47.481 114.589 49.5301 118.929 51.3382 123.371C51.7069 124.275 50.24 124.668 49.8754 123.774C46.6728 115.943 42.7106 108.444 38.0456 101.385C33.4033 94.3524 28.0899 87.7865 22.1801 81.7799C18.8375 78.3841 15.3107 75.1749 11.6158 72.1665C10.8585 71.5496 11.9374 70.4817 12.6885 71.0935Z" fill="white"/>
<path d="M150.741 125.313H62.6379V34.8897C62.6379 15.6514 78.2847 0 97.5172 0H115.862C135.095 0 150.741 15.6514 150.741 34.8897V125.313Z" fill="#F2F2F2"/>
<path d="M132.397 125.313H62.6379V34.8897C62.6187 27.5181 64.9523 20.3327 69.299 14.3798C69.4592 14.1613 69.619 13.9457 69.7838 13.7324C71.8863 10.9741 74.3883 8.5449 77.2073 6.52497C77.3665 6.40908 77.5264 6.29519 77.6886 6.18131C80.0474 4.54847 82.599 3.21366 85.2853 2.20726C85.4449 2.14678 85.6073 2.08618 85.7697 2.02805C88.1992 1.16077 90.7177 0.566696 93.2786 0.256781C93.4374 0.235087 93.6004 0.218111 93.7634 0.201134C96.259 -0.0657833 98.776 -0.0657833 101.272 0.201134C101.434 0.218111 101.597 0.235085 101.758 0.257013C104.318 0.566948 106.836 1.16095 109.265 2.02806C109.427 2.08619 109.59 2.14678 109.75 2.20738C112.403 3.20109 114.924 4.51598 117.258 6.12272C117.42 6.23413 117.582 6.34802 117.742 6.4619C119.322 7.59014 120.807 8.84707 122.18 10.2199C123.281 11.321 124.307 12.4947 125.251 13.7332C125.415 13.9457 125.575 14.1614 125.735 14.3795C130.082 20.3324 132.416 27.5179 132.397 34.8897V125.313Z" fill="#CCCCCC"/>
<path d="M126.724 84.8702C128.857 84.8702 130.586 83.1406 130.586 81.007C130.586 78.8734 128.857 77.1438 126.724 77.1438C124.591 77.1438 122.862 78.8734 122.862 81.007C122.862 83.1406 124.591 84.8702 126.724 84.8702Z" fill="#2B93FF"/>
<path d="M143.524 122.605H140.565L139.157 111.187L143.524 111.187L143.524 122.605Z" fill="#FFB8B8"/>
<path d="M138.451 121.759H144.158V125.354H134.857C134.857 124.882 134.95 124.414 135.131 123.978C135.311 123.542 135.576 123.146 135.91 122.812C136.244 122.478 136.64 122.213 137.076 122.033C137.512 121.852 137.979 121.759 138.451 121.759Z" fill="#2F2E41"/>
<path d="M158.248 122.605H155.289L153.881 111.187L158.249 111.187L158.248 122.605Z" fill="#FFB8B8"/>
<path d="M153.175 121.759H158.882V125.354H149.582C149.582 124.882 149.674 124.414 149.855 123.978C150.036 123.542 150.3 123.146 150.634 122.812C150.968 122.478 151.364 122.213 151.8 122.033C152.236 121.852 152.703 121.759 153.175 121.759Z" fill="#2F2E41"/>
<path d="M128.679 81.7723C128.466 81.4585 128.324 81.1019 128.264 80.7275C128.204 80.3531 128.226 79.9701 128.33 79.6054C128.434 79.2407 128.617 78.9032 128.865 78.6166C129.113 78.3301 129.421 78.1015 129.767 77.947L139.827 50.2122L144.777 52.9144L133.291 79.4187C133.512 80.0177 133.506 80.6769 133.273 81.2715C133.041 81.8661 132.599 82.3547 132.03 82.6448C131.461 82.9349 130.806 83.0063 130.189 82.8455C129.571 82.6847 129.034 82.3029 128.679 81.7723Z" fill="#FFB8B8"/>
<path d="M156.736 86.9838C156.408 86.7952 156.124 86.5367 155.906 86.2266C155.688 85.9165 155.54 85.5624 155.473 85.1891C155.407 84.8158 155.423 84.4324 155.52 84.066C155.618 83.6995 155.795 83.359 156.038 83.0682L152.922 53.7296L158.555 53.987L159.85 82.8454C160.311 83.2868 160.595 83.8821 160.646 84.5184C160.698 85.1547 160.515 85.7879 160.131 86.298C159.747 86.8081 159.189 87.1597 158.564 87.2861C157.938 87.4124 157.288 87.3049 156.736 86.9838Z" fill="#FFB8B8"/>
<path d="M147.75 45.075C151.024 45.075 153.678 42.4199 153.678 39.1447C153.678 35.8695 151.024 33.2144 147.75 33.2144C144.475 33.2144 141.821 35.8695 141.821 39.1447C141.821 42.4199 144.475 45.075 147.75 45.075Z" fill="#FFB8B8"/>
<path d="M156.699 80.3113H138.825L138.847 80.1721C138.879 79.9642 142.032 59.3013 139.706 52.5414C139.473 51.8771 139.494 51.1499 139.764 50.4998C140.034 49.8498 140.536 49.3227 141.171 49.0202C144.496 47.4543 150.877 45.5261 156.262 50.2055C157.055 50.9054 157.674 51.7802 158.07 52.7606C158.466 53.7411 158.629 54.8003 158.546 55.8545L156.699 80.3113Z" fill="#2B93FF"/>
<path d="M142.258 62.355L134.211 60.722L137.983 51.7811C138.209 50.9151 138.769 50.1741 139.54 49.7204C140.311 49.2668 141.231 49.1377 142.097 49.3614C142.963 49.5851 143.705 50.1434 144.161 50.9137C144.616 51.6841 144.747 52.6036 144.526 53.4707L142.258 62.355Z" fill="#2B93FF"/>
<path d="M152.564 65.387L152.08 54.2944C151.713 52.2092 152.907 50.2379 154.742 49.9157C156.578 49.5947 158.37 51.0409 158.739 53.1415L160.557 63.5065L152.564 65.387Z" fill="#2B93FF"/>
<path d="M156.104 78.9833C158.98 89.9396 159.294 103.87 158.518 119.064L154.656 118.581L147.656 89.6071L143.794 119.064L139.449 118.823C138.151 102.88 136.887 89.193 138.966 80.1905L156.104 78.9833Z" fill="#2F2E41"/>
<path d="M151.656 43.7278C150.55 44.9063 148.496 44.2737 148.352 42.6637C148.341 42.5387 148.341 42.4129 148.354 42.2881C148.429 41.575 148.841 40.9275 148.742 40.1745C148.72 39.9871 148.65 39.8085 148.539 39.6557C147.658 38.4751 145.589 40.1837 144.757 39.115C144.247 38.4597 144.847 37.4279 144.455 36.6955C143.939 35.7289 142.409 36.2057 141.449 35.6763C140.382 35.0873 140.446 33.4489 141.148 32.4523C142.005 31.2369 143.508 30.5884 144.992 30.4949C146.476 30.4015 147.949 30.8027 149.335 31.3428C150.909 31.9564 152.47 32.8044 153.438 34.1889C154.616 35.8726 154.73 38.1361 154.141 40.1049C153.782 41.3025 152.559 42.7655 151.656 43.7278Z" fill="#2F2E41"/>
<path d="M202.754 125.469H24.5453C24.4692 125.468 24.3963 125.438 24.3426 125.384C24.2889 125.33 24.2587 125.257 24.2587 125.181C24.2587 125.105 24.2889 125.032 24.3426 124.978C24.3963 124.924 24.4692 124.894 24.5453 124.894H202.754C202.83 124.894 202.903 124.924 202.957 124.978C203.011 125.032 203.041 125.105 203.041 125.181C203.041 125.257 203.011 125.33 202.957 125.384C202.903 125.438 202.83 125.468 202.754 125.469Z" fill="#3F3D56"/>
<path d="M113.207 99.1158H81.8276C81.4143 99.118 81.017 98.9562 80.7229 98.6658C80.4288 98.3754 80.2618 97.9802 80.2586 97.5668V27.505C80.2618 27.0916 80.4288 26.6964 80.7229 26.406C81.017 26.1156 81.4143 25.9538 81.8276 25.956H113.207C113.62 25.9538 114.017 26.1156 114.312 26.406C114.606 26.6964 114.773 27.0916 114.776 27.505V97.5668C114.773 97.9802 114.606 98.3754 114.312 98.6658C114.017 98.9562 113.62 99.118 113.207 99.1158Z" fill="white"/>
<path d="M114.776 48.6258H80.2586V49.1087H114.776V48.6258Z" fill="#CCCCCC"/>
<path d="M114.897 76.1779H80.3793V76.6609H114.897V76.1779Z" fill="#CCCCCC"/>
<path d="M91.6034 25.956H91.1207V99.3573H91.6034V25.956Z" fill="#CCCCCC"/>
<path d="M103.672 25.956H103.19V99.3573H103.672V25.956Z" fill="#CCCCCC"/>
</g>
<defs>
<clipPath id="clip0_569_1373">
<rect width="210" height="125.588" fill="white"/>
</clipPath>
</defs>
</svg>
