<svg width="22" height="22" viewBox="0 0 22 22" fill="none" xmlns="http://www.w3.org/2000/svg">
<ellipse cx="11.0597" cy="11" rx="10.5075" ry="11" fill="#FF3737"/>
<g clip-path="url(#clip0_4752_62561)">
<path d="M11.0597 3.5C15.0165 3.5 18.2239 6.85775 18.2239 11C18.2239 15.1423 15.0165 18.5 11.0597 18.5C7.10291 18.5 3.89551 15.1423 3.89551 11C3.89551 6.85775 7.10291 3.5 11.0597 3.5ZM11.0597 13.25C10.8697 13.25 10.6875 13.329 10.5531 13.4697C10.4187 13.6103 10.3433 13.8011 10.3433 14C10.3433 14.1989 10.4187 14.3897 10.5531 14.5303C10.6875 14.671 10.8697 14.75 11.0597 14.75C11.2497 14.75 11.4319 14.671 11.5663 14.5303C11.7006 14.3897 11.7761 14.1989 11.7761 14C11.7761 13.8011 11.7006 13.6103 11.5663 13.4697C11.4319 13.329 11.2497 13.25 11.0597 13.25ZM11.0597 6.5C10.8842 6.50002 10.7148 6.56747 10.5837 6.68954C10.4526 6.81161 10.3688 6.97981 10.3483 7.16225L10.3433 7.25V11.75C10.3435 11.9412 10.4134 12.125 10.5387 12.264C10.6641 12.403 10.8354 12.4867 11.0177 12.4979C11.2 12.5091 11.3795 12.447 11.5195 12.3243C11.6595 12.2016 11.7495 12.0276 11.7711 11.8377L11.7761 11.75V7.25C11.7761 7.05109 11.7006 6.86032 11.5663 6.71967C11.4319 6.57902 11.2497 6.5 11.0597 6.5Z" fill="white"/>
</g>
<defs>
<clipPath id="clip0_4752_62561">
<rect width="17.194" height="18" fill="white" transform="translate(2.46265 2)"/>
</clipPath>
</defs>
</svg>
